<svg width="42" height="42" viewBox="0 0 42 42" fill="none" xmlns="http://www.w3.org/2000/svg">
<path d="M20.75 26C23.6495 26 26 23.6495 26 20.75C26 17.8505 23.6495 15.5 20.75 15.5C17.8505 15.5 15.5 17.8505 15.5 20.75C15.5 23.6495 17.8505 26 20.75 26Z" stroke="currentColor" stroke-width="3" stroke-linecap="round" stroke-linejoin="round"/>
<path d="M33.7 26C33.467 26.5278 33.3976 27.1133 33.5005 27.681C33.6034 28.2487 33.8741 28.7726 34.2775 29.185L34.3825 29.29C34.7079 29.6151 34.9661 30.0011 35.1422 30.426C35.3183 30.8509 35.409 31.3063 35.409 31.7663C35.409 32.2262 35.3183 32.6816 35.1422 33.1065C34.9661 33.5314 34.7079 33.9174 34.3825 34.2425C34.0574 34.5679 33.6714 34.8261 33.2465 35.0022C32.8216 35.1783 32.3662 35.269 31.9063 35.269C31.4463 35.269 30.9909 35.1783 30.566 35.0022C30.1411 34.8261 29.7551 34.5679 29.43 34.2425L29.325 34.1375C28.9126 33.7341 28.3887 33.4634 27.821 33.3605C27.2533 33.2576 26.6678 33.327 26.14 33.56C25.6224 33.7818 25.181 34.1502 24.87 34.6197C24.5591 35.0892 24.3922 35.6394 24.39 36.2025V36.5C24.39 37.4283 24.0213 38.3185 23.3649 38.9749C22.7085 39.6313 21.8183 40 20.89 40C19.9617 40 19.0715 39.6313 18.4151 38.9749C17.7588 38.3185 17.39 37.4283 17.39 36.5V36.3425C17.3765 35.7633 17.189 35.2015 16.8519 34.7302C16.5148 34.259 16.0438 33.9 15.5 33.7C14.9722 33.467 14.3867 33.3976 13.819 33.5005C13.2513 33.6034 12.7274 33.8741 12.315 34.2775L12.21 34.3825C11.8849 34.7079 11.4989 34.9661 11.074 35.1422C10.6491 35.3183 10.1937 35.409 9.73375 35.409C9.2738 35.409 8.81835 35.3183 8.39346 35.1422C7.96857 34.9661 7.58256 34.7079 7.2575 34.3825C6.93208 34.0574 6.67393 33.6714 6.49779 33.2465C6.32166 32.8216 6.231 32.3662 6.231 31.9063C6.231 31.4463 6.32166 30.9909 6.49779 30.566C6.67393 30.1411 6.93208 29.7551 7.2575 29.43L7.3625 29.325C7.76594 28.9126 8.03658 28.3887 8.13951 27.821C8.24244 27.2533 8.17295 26.6678 7.94 26.14C7.71817 25.6224 7.34982 25.181 6.88031 24.87C6.41081 24.5591 5.86063 24.3922 5.2975 24.39H5C4.07174 24.39 3.1815 24.0213 2.52513 23.3649C1.86875 22.7085 1.5 21.8183 1.5 20.89C1.5 19.9617 1.86875 19.0715 2.52513 18.4151C3.1815 17.7588 4.07174 17.39 5 17.39H5.1575C5.73674 17.3765 6.29851 17.189 6.76977 16.8519C7.24104 16.5148 7.6 16.0438 7.8 15.5C8.03295 14.9722 8.10244 14.3867 7.99951 13.819C7.89658 13.2513 7.62594 12.7274 7.2225 12.315L7.1175 12.21C6.79208 11.8849 6.53393 11.4989 6.35779 11.074C6.18166 10.6491 6.091 10.1937 6.091 9.73375C6.091 9.2738 6.18166 8.81835 6.35779 8.39346C6.53393 7.96857 6.79208 7.58256 7.1175 7.2575C7.44256 6.93208 7.82857 6.67393 8.25346 6.49779C8.67835 6.32166 9.1338 6.231 9.59375 6.231C10.0537 6.231 10.5091 6.32166 10.934 6.49779C11.3589 6.67393 11.7449 6.93208 12.07 7.2575L12.175 7.3625C12.5874 7.76594 13.1113 8.03658 13.679 8.13951C14.2467 8.24244 14.8322 8.17295 15.36 7.94H15.5C16.0176 7.71817 16.459 7.34982 16.77 6.88031C17.0809 6.41081 17.2478 5.86063 17.25 5.2975V5C17.25 4.07174 17.6188 3.1815 18.2751 2.52513C18.9315 1.86875 19.8217 1.5 20.75 1.5C21.6783 1.5 22.5685 1.86875 23.2249 2.52513C23.8813 3.1815 24.25 4.07174 24.25 5V5.1575C24.2522 5.72063 24.4191 6.27081 24.73 6.74031C25.041 7.20982 25.4824 7.57817 26 7.8C26.5278 8.03295 27.1133 8.10244 27.681 7.99951C28.2487 7.89658 28.7726 7.62594 29.185 7.2225L29.29 7.1175C29.6151 6.79208 30.0011 6.53393 30.426 6.35779C30.8509 6.18166 31.3063 6.091 31.7663 6.091C32.2262 6.091 32.6816 6.18166 33.1065 6.35779C33.5314 6.53393 33.9174 6.79208 34.2425 7.1175C34.5679 7.44256 34.8261 7.82857 35.0022 8.25346C35.1783 8.67835 35.269 9.1338 35.269 9.59375C35.269 10.0537 35.1783 10.5091 35.0022 10.934C34.8261 11.3589 34.5679 11.7449 34.2425 12.07L34.1375 12.175C33.7341 12.5874 33.4634 13.1113 33.3605 13.679C33.2576 14.2467 33.327 14.8322 33.56 15.36V15.5C33.7818 16.0176 34.1502 16.459 34.6197 16.77C35.0892 17.0809 35.6394 17.2478 36.2025 17.25H36.5C37.4283 17.25 38.3185 17.6188 38.9749 18.2751C39.6313 18.9315 40 19.8217 40 20.75C40 21.6783 39.6313 22.5685 38.9749 23.2249C38.3185 23.8813 37.4283 24.25 36.5 24.25H36.3425C35.7794 24.2522 35.2292 24.4191 34.7597 24.73C34.2902 25.041 33.9218 25.4824 33.7 26Z" stroke="currentColor" stroke-width="3" stroke-linecap="round" stroke-linejoin="round"/>
</svg>
