<svg width="21" height="26" viewBox="0 0 21 26" fill="none" xmlns="http://www.w3.org/2000/svg">
<path d="M12.75 0.750004H3.15C2.51348 0.750004 1.90303 1.00286 1.45294 1.45295C1.00286 1.90303 0.75 2.51348 0.75 3.15V22.35C0.75 22.9865 1.00286 23.597 1.45294 24.0471C1.90303 24.4971 2.51348 24.75 3.15 24.75H17.55C18.1865 24.75 18.797 24.4971 19.2471 24.0471C19.6971 23.597 19.95 22.9865 19.95 22.35V7.95M12.75 0.750004C13.1299 0.749388 13.5061 0.823926 13.857 0.969326C14.208 1.11473 14.5267 1.32811 14.7948 1.5972L19.1004 5.9028C19.3702 6.17101 19.5842 6.49002 19.73 6.8414C19.8759 7.19278 19.9506 7.56957 19.95 7.95M12.75 0.750004V6.75C12.75 7.06826 12.8764 7.37349 13.1015 7.59853C13.3265 7.82357 13.6317 7.95 13.95 7.95L19.95 7.95M7.95 12.75C7.63174 12.75 7.32651 12.8764 7.10147 13.1015C6.87643 13.3265 6.75 13.6317 6.75 13.95V15.15C6.75 15.4683 6.62357 15.7735 6.39853 15.9985C6.17348 16.2236 5.86826 16.35 5.55 16.35C5.86826 16.35 6.17348 16.4764 6.39853 16.7015C6.62357 16.9265 6.75 17.2317 6.75 17.55V18.75C6.75 19.0683 6.87643 19.3735 7.10147 19.5985C7.32651 19.8236 7.63174 19.95 7.95 19.95M12.75 19.95C13.0683 19.95 13.3735 19.8236 13.5985 19.5985C13.8236 19.3735 13.95 19.0683 13.95 18.75V17.55C13.95 17.2317 14.0764 16.9265 14.3015 16.7015C14.5265 16.4764 14.8317 16.35 15.15 16.35C14.8317 16.35 14.5265 16.2236 14.3015 15.9985C14.0764 15.7735 13.95 15.4683 13.95 15.15V13.95C13.95 13.6317 13.8236 13.3265 13.5985 13.1015C13.3735 12.8764 13.0683 12.75 12.75 12.75" stroke="black" stroke-width="1.5" stroke-linecap="round" stroke-linejoin="round"/>
</svg>
