<svg width="22" height="22" viewBox="0 0 22 22" fill="none" xmlns="http://www.w3.org/2000/svg">
<path d="M20.1668 15.5833C20.1668 16.0696 19.9737 16.5359 19.6299 16.8797C19.286 17.2235 18.8197 17.4167 18.3335 17.4167H6.25916C5.77297 17.4168 5.30673 17.61 4.963 17.9538L2.9445 19.9723C2.85348 20.0633 2.73752 20.1253 2.61128 20.1504C2.48504 20.1755 2.35419 20.1626 2.23528 20.1134C2.11636 20.0641 2.01472 19.9807 1.94321 19.8737C1.87169 19.7667 1.83351 19.6409 1.8335 19.5122V4.58333C1.8335 4.0971 2.02665 3.63079 2.37047 3.28697C2.71428 2.94315 3.1806 2.75 3.66683 2.75H18.3335C18.8197 2.75 19.286 2.94315 19.6299 3.28697C19.9737 3.63079 20.1668 4.0971 20.1668 4.58333V15.5833Z" stroke="black" stroke-width="1.66667" stroke-linecap="round" stroke-linejoin="round"/>
</svg>
