<svg width="18" height="23" viewBox="0 0 18 23" fill="none" xmlns="http://www.w3.org/2000/svg">
<path d="M0.75 22.0833H6.08333M11.4167 8.75H16.75M0.75 14.0833H3.41667V22.0833M11.4167 0.75H14.0833V8.75M14.0833 14.0833C15.5561 14.0833 16.75 15.2772 16.75 16.75V19.4167C16.75 20.8894 15.5561 22.0833 14.0833 22.0833C12.6106 22.0833 11.4167 20.8894 11.4167 19.4167V16.75C11.4167 15.2772 12.6106 14.0833 14.0833 14.0833ZM3.41667 0.75C4.88943 0.75 6.08333 1.94391 6.08333 3.41667V6.08333C6.08333 7.55609 4.88943 8.75 3.41667 8.75C1.94391 8.75 0.75 7.55609 0.75 6.08333V3.41667C0.75 1.94391 1.94391 0.75 3.41667 0.75Z" stroke="black" stroke-width="1.5" stroke-linecap="round" stroke-linejoin="round"/>
</svg>
