<svg width="24" height="24" viewBox="0 0 24 24" fill="none" xmlns="http://www.w3.org/2000/svg">
<path d="M4 12.0001C3.99962 12.1531 4.0431 12.303 4.12527 12.4321C4.20745 12.5611 4.32487 12.6639 4.46362 12.7281L11.3379 15.8561C11.5451 15.9499 11.7699 15.9985 11.9974 15.9985C12.2248 15.9985 12.4497 15.9499 12.6568 15.8561L19.5152 12.7361C19.6567 12.6725 19.7766 12.569 19.8603 12.4383C19.9441 12.3076 19.988 12.1554 19.9868 12.0001M4 16.0001C3.99962 16.1531 4.0431 16.303 4.12527 16.432C4.20745 16.561 4.32487 16.6638 4.46362 16.728L11.3379 19.856C11.5451 19.9499 11.7699 19.9984 11.9974 19.9984C12.2248 19.9984 12.4497 19.9499 12.6568 19.856L19.5152 16.736C19.6567 16.6724 19.7766 16.5689 19.8603 16.4382C19.9441 16.3075 19.988 16.1553 19.9868 16.0001M12.6568 4.14428C12.4486 4.0492 12.2223 4 11.9934 4C11.7645 4 11.5382 4.0492 11.3299 4.14428L4.47961 7.26422C4.33776 7.32682 4.21717 7.42934 4.1325 7.5593C4.04784 7.68927 4.00276 7.84106 4.00276 7.99621C4.00276 8.15135 4.04784 8.30315 4.1325 8.43311C4.21717 8.56308 4.33776 8.6656 4.47961 8.72819L11.3379 11.8561C11.5462 11.9512 11.7725 12.0004 12.0014 12.0004C12.2303 12.0004 12.4566 11.9512 12.6648 11.8561L19.5232 8.73619C19.665 8.6736 19.7856 8.57108 19.8703 8.44111C19.9549 8.31115 20 8.15935 20 8.00421C20 7.84906 19.9549 7.69726 19.8703 7.5673C19.7856 7.43734 19.665 7.33482 19.5232 7.27222L12.6568 4.14428Z" stroke="currentColor" stroke-width="2" stroke-linecap="round" stroke-linejoin="round"/>
</svg>
