<svg width="20" height="20" viewBox="-1 -1 22 22" fill="none" xmlns="http://www.w3.org/2000/svg">
<path d="M19 13.9999V5.9999C18.9996 5.64918 18.9071 5.30471 18.7315 5.00106C18.556 4.69742 18.3037 4.44526 18 4.2699L11 0.269902C10.696 0.0943656 10.3511 0.00195312 10 0.00195312C9.64893 0.00195312 9.30404 0.0943656 9 0.269902L2 4.2699C1.69626 4.44526 1.44398 4.69742 1.26846 5.00106C1.09294 5.30471 1.00036 5.64918 1 5.9999V13.9999C1.00036 14.3506 1.09294 14.6951 1.26846 14.9987C1.44398 15.3024 1.69626 15.5545 2 15.7299L9 19.7299C9.30404 19.9054 9.64893 19.9979 10 19.9979C10.3511 19.9979 10.696 19.9054 11 19.7299L18 15.7299C18.3037 15.5545 18.556 15.3024 18.7315 14.9987C18.9071 14.6951 18.9996 14.3506 19 13.9999Z" stroke="currentColor" stroke-width="2" stroke-linecap="round" stroke-linejoin="round"/>
<path d="M10 14C12.2091 14 14 12.2091 14 10C14 7.79086 12.2091 6 10 6C7.79086 6 6 7.79086 6 10C6 12.2091 7.79086 14 10 14Z" stroke="currentColor" stroke-width="2" stroke-linecap="round" stroke-linejoin="round"/>
</svg>
