<svg width="28" height="28" viewBox="0 0 28 28" fill="none" xmlns="http://www.w3.org/2000/svg">
<path d="M25.6668 19.8333C25.6668 20.4522 25.421 21.0457 24.9834 21.4832C24.5458 21.9208 23.9523 22.1667 23.3335 22.1667H7.96616C7.34737 22.1668 6.75398 22.4127 6.3165 22.8503L3.7475 25.4193C3.63165 25.5352 3.48407 25.614 3.3234 25.646C3.16273 25.6779 2.9962 25.6615 2.84485 25.5988C2.69351 25.5362 2.56415 25.43 2.47313 25.2938C2.38211 25.1576 2.33352 24.9975 2.3335 24.8337V5.83333C2.3335 5.21449 2.57933 4.621 3.01691 4.18342C3.4545 3.74583 4.04799 3.5 4.66683 3.5H23.3335C23.9523 3.5 24.5458 3.74583 24.9834 4.18342C25.421 4.621 25.6668 5.21449 25.6668 5.83333V19.8333Z" stroke="#5A5A5A" stroke-width="1.66667" stroke-linecap="round" stroke-linejoin="round"/>
</svg>
