<svg width="28" height="28" viewBox="0 0 28 28" fill="none" xmlns="http://www.w3.org/2000/svg">
<path d="M18.9548 9.0545C20.265 10.3669 21.0008 12.1456 21.0008 14C21.0008 15.8544 20.265 17.6331 18.9548 18.9455" stroke="#5A5A5A" stroke-width="1.66667" stroke-linecap="round" stroke-linejoin="round"/>
<path d="M22.2542 5.75519C24.4392 7.94273 25.6665 10.9082 25.6665 14C25.6665 17.0919 24.4392 20.0573 22.2542 22.2449" stroke="#5A5A5A" stroke-width="1.66667" stroke-linecap="round" stroke-linejoin="round"/>
<path d="M5.74584 22.2449C3.56082 20.0573 2.3335 17.0919 2.3335 14C2.3335 10.9082 3.56082 7.94273 5.74584 5.75519" stroke="#5A5A5A" stroke-width="1.66667" stroke-linecap="round" stroke-linejoin="round"/>
<path d="M9.04515 18.9455C7.735 17.6331 6.99915 15.8544 6.99915 14C6.99915 12.1456 7.735 10.3669 9.04515 9.0545" stroke="#5A5A5A" stroke-width="1.66667" stroke-linecap="round" stroke-linejoin="round"/>
<path d="M14 16.3334C15.2887 16.3334 16.3333 15.2887 16.3333 14C16.3333 12.7114 15.2887 11.6667 14 11.6667C12.7113 11.6667 11.6667 12.7114 11.6667 14C11.6667 15.2887 12.7113 16.3334 14 16.3334Z" stroke="#5A5A5A" stroke-width="1.66667" stroke-linecap="round" stroke-linejoin="round"/>
</svg>
