<svg width="17" height="17" viewBox="0 0 17 17" fill="none" xmlns="http://www.w3.org/2000/svg">
<g clip-path="url(#clip0_603_179)">
<path d="M0 16.8704L2.66374 14.2066M4.88353 9.3231L7.10332 7.10331M7.54727 11.9868L9.76706 9.76706M14.2066 0L10.655 3.55166H15.9825L12.4308 7.10331M3.81803 15.3609C4.01601 15.5596 4.25125 15.7172 4.51028 15.8248C4.76931 15.9323 5.04702 15.9877 5.32749 15.9877C5.60796 15.9877 5.88567 15.9323 6.14469 15.8248C6.40372 15.7172 6.63896 15.5596 6.83694 15.3609L8.87914 13.3187L3.55166 7.99123L1.50945 10.0334C1.31079 10.2314 1.15316 10.4667 1.0456 10.7257C0.938048 10.9847 0.882682 11.2624 0.882682 11.5429C0.882682 11.8234 0.938048 12.1011 1.0456 12.3601C1.15316 12.6191 1.31079 12.8544 1.50945 13.0523L3.81803 15.3609Z" stroke="black" stroke-width="2" stroke-linecap="round" stroke-linejoin="round"/>
</g>
<defs>
<clipPath id="clip0_603_179">
<rect width="16.8704" height="16.8704" fill="white"/>
</clipPath>
</defs>
</svg>
