<svg width="28" height="28" viewBox="0 0 28 28" fill="none" xmlns="http://www.w3.org/2000/svg">
<path d="M14 23.3333V25.6666" stroke="#5A5A5A" stroke-width="1.66667" stroke-linecap="round" stroke-linejoin="round"/>
<path d="M14 2.33334V4.66668" stroke="#5A5A5A" stroke-width="1.66667" stroke-linecap="round" stroke-linejoin="round"/>
<path d="M19.8333 23.3333V25.6666" stroke="#5A5A5A" stroke-width="1.66667" stroke-linecap="round" stroke-linejoin="round"/>
<path d="M19.8333 2.33334V4.66668" stroke="#5A5A5A" stroke-width="1.66667" stroke-linecap="round" stroke-linejoin="round"/>
<path d="M2.33334 14H4.66668" stroke="#5A5A5A" stroke-width="1.66667" stroke-linecap="round" stroke-linejoin="round"/>
<path d="M2.33334 19.8333H4.66668" stroke="#5A5A5A" stroke-width="1.66667" stroke-linecap="round" stroke-linejoin="round"/>
<path d="M2.33334 8.16666H4.66668" stroke="#5A5A5A" stroke-width="1.66667" stroke-linecap="round" stroke-linejoin="round"/>
<path d="M23.3333 14H25.6667" stroke="#5A5A5A" stroke-width="1.66667" stroke-linecap="round" stroke-linejoin="round"/>
<path d="M23.3333 19.8333H25.6667" stroke="#5A5A5A" stroke-width="1.66667" stroke-linecap="round" stroke-linejoin="round"/>
<path d="M23.3333 8.16666H25.6667" stroke="#5A5A5A" stroke-width="1.66667" stroke-linecap="round" stroke-linejoin="round"/>
<path d="M8.16666 23.3333V25.6666" stroke="#5A5A5A" stroke-width="1.66667" stroke-linecap="round" stroke-linejoin="round"/>
<path d="M8.16666 2.33334V4.66668" stroke="#5A5A5A" stroke-width="1.66667" stroke-linecap="round" stroke-linejoin="round"/>
<path d="M21 4.66666H6.99999C5.71133 4.66666 4.66666 5.71133 4.66666 6.99999V21C4.66666 22.2887 5.71133 23.3333 6.99999 23.3333H21C22.2887 23.3333 23.3333 22.2887 23.3333 21V6.99999C23.3333 5.71133 22.2887 4.66666 21 4.66666Z" stroke="#5A5A5A" stroke-width="1.66667" stroke-linecap="round" stroke-linejoin="round"/>
<path d="M17.5 9.33334H10.5C9.85568 9.33334 9.33334 9.85568 9.33334 10.5V17.5C9.33334 18.1443 9.85568 18.6667 10.5 18.6667H17.5C18.1443 18.6667 18.6667 18.1443 18.6667 17.5V10.5C18.6667 9.85568 18.1443 9.33334 17.5 9.33334Z" stroke="#5A5A5A" stroke-width="1.66667" stroke-linecap="round" stroke-linejoin="round"/>
</svg>
