<svg width="28" height="28" viewBox="0 0 28 28" fill="none" xmlns="http://www.w3.org/2000/svg">
<path d="M6.99996 25.6667C6.38112 25.6667 5.78763 25.4208 5.35004 24.9833C4.91246 24.5457 4.66663 23.9522 4.66663 23.3333V4.66668C4.66663 4.04784 4.91246 3.45435 5.35004 3.01676C5.78763 2.57918 6.38112 2.33335 6.99996 2.33335H16.3333C16.7026 2.33275 17.0684 2.40522 17.4096 2.54658C17.7508 2.68794 18.0606 2.8954 18.3213 3.15701L22.5073 7.34301C22.7696 7.60377 22.9777 7.91392 23.1194 8.25554C23.2612 8.59715 23.3339 8.96348 23.3333 9.33335V23.3333C23.3333 23.9522 23.0875 24.5457 22.6499 24.9833C22.2123 25.4208 21.6188 25.6667 21 25.6667H6.99996Z" stroke="#5A5A5A" stroke-width="1.66667" stroke-linecap="round" stroke-linejoin="round"/>
<path d="M16.3334 2.33334V8.16668C16.3334 8.4761 16.4563 8.77284 16.6751 8.99163C16.8939 9.21043 17.1906 9.33334 17.5 9.33334H23.3334" stroke="#5A5A5A" stroke-width="1.66667" stroke-linecap="round" stroke-linejoin="round"/>
<path d="M14 14V21" stroke="#5A5A5A" stroke-width="1.66667" stroke-linecap="round" stroke-linejoin="round"/>
<path d="M17.5 17.5L14 14L10.5 17.5" stroke="#5A5A5A" stroke-width="1.66667" stroke-linecap="round" stroke-linejoin="round"/>
</svg>
