<svg width="33" height="24" viewBox="0 0 33 24" fill="none" xmlns="http://www.w3.org/2000/svg">
    <path d="M1.09688 12.3879C0.967707 12.0399 0.967707 11.6571 1.09688 11.3091C2.35495 8.25865 4.49046 5.65042 7.23266 3.8151C9.97487 1.97977 13.2003 1 16.5 1C19.7997 1 23.0251 1.97977 25.7673 3.8151C28.5095 5.65042 30.645 8.25865 31.9031 11.3091C32.0323 11.6571 32.0323 12.0399 31.9031 12.3879C30.645 15.4383 28.5095 18.0466 25.7673 19.8819C23.0251 21.7172 19.7997 22.697 16.5 22.697C13.2003 22.697 9.97487 21.7172 7.23266 19.8819C4.49046 18.0466 2.35495 15.4383 1.09688 12.3879Z" stroke="currentColor" stroke-width="2" stroke-linecap="round" stroke-linejoin="round"/>
    <path d="M16.5 16.4983C19.068 16.4983 21.1498 14.4165 21.1498 11.8485C21.1498 9.2805 19.068 7.19873 16.5 7.19873C13.932 7.19873 11.8502 9.2805 11.8502 11.8485C11.8502 14.4165 13.932 16.4983 16.5 16.4983Z" stroke="black" stroke-width="2" stroke-linecap="round" stroke-linejoin="round"/>
</svg>
