<svg width="26" height="30" viewBox="0 0 26 30" fill="none" xmlns="http://www.w3.org/2000/svg">
    <path d="M15.7368 1H3.94737C3.16568 1 2.416 1.295 1.86326 1.82011C1.31053 2.34521 1 3.0574 1 3.8V26.2C1 26.9426 1.31053 27.6548 1.86326 28.1799C2.416 28.705 3.16568 29 3.94737 29H21.6316C22.4133 29 23.1629 28.705 23.7157 28.1799C24.2684 27.6548 24.5789 26.9426 24.5789 26.2V9.4M15.7368 1C16.2033 0.999286 16.6654 1.08625 17.0964 1.25588C17.5273 1.42551 17.9187 1.67447 18.248 1.9884L23.5356 7.0116C23.8669 7.32451 24.1297 7.69669 24.3088 8.10663C24.4879 8.51657 24.5797 8.95616 24.5789 9.4M15.7368 1V8C15.7368 8.37131 15.8921 8.7274 16.1685 8.98995C16.4448 9.2525 16.8197 9.4 17.2105 9.4L24.5789 9.4M12.7895 23.4V15M12.7895 23.4L8.36842 19.2M12.7895 23.4L17.2105 19.2" stroke="currentColor" stroke-width="2" stroke-linecap="round" stroke-linejoin="round"/>
</svg>
