<svg width="20" height="22" viewBox="0 0 20 22" fill="none" xmlns="http://www.w3.org/2000/svg">
<path d="M13 13V15.2L14.6 16.2M13 3H15C15.5304 3 16.0391 3.21071 16.4142 3.58579C16.7893 3.96086 17 4.46957 17 5V5.832M5 3H3C2.46957 3 1.96086 3.21071 1.58579 3.58579C1.21071 3.96086 1 4.46957 1 5V19C1 19.5304 1.21071 20.0391 1.58579 20.4142C1.96086 20.7893 2.46957 21 3 21H5M19 15C19 18.3137 16.3137 21 13 21C9.68629 21 7 18.3137 7 15C7 11.6863 9.68629 9 13 9C16.3137 9 19 11.6863 19 15ZM6 1H12C12.5523 1 13 1.44772 13 2V4C13 4.55228 12.5523 5 12 5H6C5.44772 5 5 4.55228 5 4V2C5 1.44772 5.44772 1 6 1Z" stroke="currentColor" stroke-width="2" stroke-linecap="round" stroke-linejoin="round"/>
</svg>
