<svg width="20" height="22" viewBox="0 0 20 22" fill="none" xmlns="http://www.w3.org/2000/svg">
<path d="M8.875 21H3.25C2.65326 21 2.08097 20.7893 1.65901 20.4142C1.23705 20.0391 1 19.5304 1 19V3.00001C1 2.46957 1.23705 1.96087 1.65901 1.58579C2.08097 1.21072 2.65326 1.00001 3.25 1.00001H12.25M12.25 1.00001C12.6065 0.99923 12.9596 1.06122 13.2891 1.18239C13.6185 1.30357 13.9176 1.48153 14.1692 1.70601L18.2057 5.29401C18.4583 5.51768 18.6585 5.78359 18.7948 6.0764C18.9311 6.36921 19.0009 6.68311 19 7.00001M12.25 1.00001V6.00001C12.25 6.26522 12.3685 6.51958 12.5795 6.70711C12.7905 6.89465 13.0766 7.00001 13.375 7.00001H19M19 7.00001V12M13.375 16L19 21M19 16L13.375 21" stroke="currentColor" stroke-width="2" stroke-linecap="round" stroke-linejoin="round"/>
</svg>
